<?xml version="1.0" encoding="utf-8"?>
<!-- Generator: Adobe Illustrator 19.0.1, SVG Export Plug-In . SVG Version: 6.00 Build 0)  -->
<svg version="1.1" id="Layer_1" xmlns="http://www.w3.org/2000/svg" xmlns:xlink="http://www.w3.org/1999/xlink" x="0px" y="0px"
	 viewBox="-553 288.8 391.9 124.2" style="enable-background:new -553 288.8 391.9 124.2;" xml:space="preserve">
<style type="text/css">
	.st0{fill:#FFFFFF;}
</style>
<g id="Layer_x0020_1">
	<path class="st0" d="M-378.4,410.8v-36.3h3.4l11.6,20.8l11.6-20.8h3.4v36.3h-4.6v-25l-9,16.2h-2.8l-9-16.2v25L-378.4,410.8
		L-378.4,410.8z M-333.5,410.8l12-36.3h3.4l12,36.3h-4.8l-2-5.8h-14.1l-1.9,5.8H-333.5L-333.5,410.8z M-319.7,383.7l-5.8,17.4h11.6
		L-319.7,383.7z M-273.7,408c-2.3,2-5.2,3-8.5,3c-3.3,0-6.2-1-8.6-3.1c-2.4-2-3.5-4.5-3.5-7.5h4.6c0,1.8,0.7,3.4,2.2,4.7
		c1.5,1.3,3.2,2,5.3,2c2,0,3.8-0.6,5.3-1.9c1.5-1.2,2.2-2.8,2.2-4.6c0-1-0.4-2-1.2-3.1c-0.8-1.1-1.9-2-3.3-2.7l-8.3-4.4
		c-1.6-0.8-2.8-1.9-3.7-3.3s-1.3-2.8-1.3-4.3c0-2.4,1-4.5,3-6.2s4.5-2.6,7.4-2.6c2.8,0,5.3,0.9,7.3,2.6c2,1.7,3.1,3.8,3.1,6.2h-4.6
		c0-1.3-0.6-2.5-1.7-3.4c-1.1-1-2.5-1.5-4.1-1.5c-1.6,0-3,0.5-4.1,1.4c-1.1,1-1.7,2.1-1.7,3.5c0,1.9,0.9,3.3,2.8,4.2l8.3,4.4
		c1.9,1,3.5,2.3,4.8,3.9c1.3,1.6,1.9,3.3,1.9,5.1C-270.2,403.6-271.3,406.1-273.7,408L-273.7,408z M-259.1,378.4v-3.9h23v3.9h-9.2
		v32.4h-4.6v-32.4H-259.1z M-221.3,410.8v-36.3h18.4v3.9h-13.8v15h11.6v3.9h-11.6v9.6h13.8v3.9L-221.3,410.8L-221.3,410.8z
		 M-166,410.8l-7-13.6c-0.7,0.1-1.5,0.2-2.2,0.2h-6.7v13.5h-4.6v-36.3h11.3c3.8,0,7,1.1,9.7,3.4c2.7,2.2,4,4.9,4,8.1
		c0,2.1-0.7,4.1-2,5.9c-1.3,1.8-3,3.2-5.2,4.1l7.5,14.9L-166,410.8L-166,410.8z M-168.7,391.2c1.8-1.5,2.7-3.2,2.7-5.3
		c0-2.1-0.9-3.8-2.7-5.3c-1.8-1.5-4-2.2-6.5-2.2h-6.7v15h6.7C-172.7,393.4-170.5,392.7-168.7,391.2L-168.7,391.2z M-378.4,296.8
		v-7.6h37.7v7.6h-15.1v62.9h-7.6v-62.9H-378.4L-378.4,296.8z M-338.2,324.5c0-9.9,3.5-18.3,10.5-25.2c7-7,15.4-10.5,25.3-10.5
		c9.8,0,18.2,3.5,25.2,10.5c7,7,10.5,15.4,10.5,25.2c0,9.8-3.5,18.2-10.5,25.2c-7,7-15.4,10.5-25.2,10.5c-9.9,0-18.3-3.5-25.3-10.5
		C-334.7,342.6-338.2,334.2-338.2,324.5z M-322.3,304.6c-5.5,5.5-8.3,12.1-8.3,19.9c0,7.8,2.8,14.4,8.3,19.9
		c5.5,5.5,12.1,8.3,19.9,8.3c7.7,0,14.3-2.8,19.9-8.3c5.5-5.5,8.3-12.1,8.3-19.9c0-7.8-2.8-14.4-8.3-19.9
		c-5.5-5.5-12.2-8.3-19.9-8.3C-310.2,296.3-316.8,299.1-322.3,304.6z M-236.6,360.2c-5.3,0-9.8-1.9-13.5-5.6
		c-3.7-3.8-5.6-8.3-5.6-13.5v-51.8h7.6v51.8c0,3.1,1.1,5.9,3.4,8.2c2.3,2.3,5,3.4,8.2,3.4c3.2,0,5.9-1.1,8.2-3.4
		c2.3-2.3,3.4-5,3.4-8.2v-51.8h7.6v51.8c0,5.2-1.9,9.7-5.7,13.5C-226.9,358.3-231.4,360.2-236.6,360.2L-236.6,360.2z M-169.2,359.7
		l-11.5-26.5c-1.2,0.2-2.4,0.3-3.6,0.3h-11.1v26.1h-7.5v-70.5h18.6c6.2,0,11.6,2.2,16,6.5c4.4,4.3,6.7,9.6,6.7,15.6
		c0,4.1-1.1,7.9-3.2,11.4c-2.1,3.5-5,6.2-8.5,8l12.4,28.9L-169.2,359.7L-169.2,359.7z M-173.6,321.7c3-2.9,4.4-6.3,4.4-10.3
		s-1.5-7.5-4.4-10.3c-3-2.9-6.5-4.3-10.7-4.3h-11.1V326h11.1C-180.2,326-176.6,324.6-173.6,321.7z M-404.7,288.8h2.1V413h-2.1
		C-404.7,413-404.7,288.8-404.7,288.8z M-498.3,315.1v83.1l-10.4-8.4v-62.2c-1.4,2.4-2.7,4.9-3.8,7.5c-3.3-1.2-6.6-2.4-9.9-3.7
		c5.6-13.2,13.8-24.8,29.8-31.6c0,3.8,0,7.7,0,11.6C-494.6,312.5-496.5,313.7-498.3,315.1L-498.3,315.1z M-483.3,318.7v83.1
		l10.4-8.4v-62.2c1.4,2.4,2.7,4.9,3.8,7.5c3.3-1.2,6.6-2.4,9.9-3.7c-5.6-13.2-13.8-24.8-29.8-31.6c0,3.8,0,7.7,0,11.6
		C-486.9,316.1-485.1,317.3-483.3,318.7L-483.3,318.7z M-490.9,288.8c17.1,0,32.7,6.9,43.9,18.2s18.2,26.8,18.2,43.9
		c0,17.1-7,32.7-18.2,43.9c-11.2,11.2-26.8,18.2-43.9,18.2c-17.1,0-32.7-7-43.9-18.2C-546,383.6-553,368-553,350.9
		c0-17.1,7-32.7,18.2-43.9C-523.6,295.8-508,288.8-490.9,288.8z M-449,309c-10.7-10.7-25.5-17.4-41.9-17.4
		c-16.4,0-31.2,6.6-41.9,17.4c-10.7,10.7-17.4,25.5-17.4,41.9s6.6,31.2,17.4,41.9s25.5,17.4,41.9,17.4s31.2-6.6,41.9-17.4
		c10.7-10.7,17.4-25.5,17.4-41.9C-431.6,334.5-438.3,319.7-449,309z"/>
</g>
</svg>
