<?xml version="1.0" encoding="UTF-8"?>
<!DOCTYPE svg PUBLIC "-//W3C//DTD SVG 1.1//EN" "http://www.w3.org/Graphics/SVG/1.1/DTD/svg11.dtd">
<!-- Creator: CorelDRAW 2017 -->
<svg xmlns="http://www.w3.org/2000/svg" xml:space="preserve" width="43.8101mm" height="43.8101mm" version="1.1" style="shape-rendering:geometricPrecision; text-rendering:geometricPrecision; image-rendering:optimizeQuality; fill-rule:evenodd; clip-rule:evenodd"
viewBox="0 0 776.16 776.16"
 xmlns:xlink="http://www.w3.org/1999/xlink">
 <defs>
  <style type="text/css">
   <![CDATA[
    .fil0 {fill:#7EDDD3;fill-rule:nonzero}
   ]]>
  </style>
 </defs>
 <g id="Layer_x0020_1">
  <metadata id="CorelCorpID_0Corel-Layer"/>
  <path class="fil0" d="M649.97 126.19c-67.02,-67.02 -159.61,-108.48 -261.89,-108.48 -102.27,0 -194.87,41.45 -261.89,108.48 -67.02,67.02 -108.48,159.61 -108.48,261.89 0,102.27 41.45,194.87 108.48,261.89 67.02,67.02 159.61,108.48 261.89,108.48 102.27,0 194.87,-41.46 261.89,-108.48 67.02,-67.02 108.48,-159.61 108.48,-261.89 0,-102.27 -41.46,-194.87 -108.48,-261.89zm-261.89 -126.19c107.16,0 204.18,43.44 274.41,113.67 70.23,70.23 113.67,167.25 113.67,274.41 0,107.16 -43.44,204.19 -113.67,274.41 -70.23,70.23 -167.25,113.67 -274.41,113.67 -107.16,0 -204.19,-43.44 -274.41,-113.67 -70.23,-70.23 -113.67,-167.25 -113.67,-274.41 0,-107.16 43.44,-204.19 113.67,-274.41 70.23,-70.23 167.25,-113.67 274.41,-113.67zm47.33 186.98l0 519.37 65.16 -52.54 0 -388.48c8.66,14.72 16.59,30.38 23.91,46.81 20.63,-7.66 41.25,-15.31 61.88,-22.97 -34.95,-82.6 -86.1,-155.24 -186.09,-197.81 0,24.06 0,48.13 0,72.19 12.58,6.72 24.26,14.57 35.15,23.44zm-93.27 -22.5l0 519.37 -65.16 -52.54 0 -388.48c-8.66,14.72 -16.59,30.38 -23.91,46.81 -20.63,-7.66 -41.25,-15.31 -61.88,-22.97 34.95,-82.6 86.1,-155.24 186.09,-197.81 0,24.06 0,48.13 0,72.19 -12.58,6.72 -24.26,14.57 -35.15,23.44z"/>
 </g>
</svg>
