<?xml version="1.0" encoding="utf-8"?>
<!-- Generator: Adobe Illustrator 19.0.1, SVG Export Plug-In . SVG Version: 6.00 Build 0)  -->
<svg version="1.1" id="Layer_1" xmlns="http://www.w3.org/2000/svg" xmlns:xlink="http://www.w3.org/1999/xlink" x="0px" y="0px"
	 viewBox="-687 288.8 124.2 124.2" style="enable-background:new -687 288.8 124.2 124.2;" xml:space="preserve">
<style type="text/css">
	.st0{fill:#FFFFFF;}
</style>
<g id="Layer_x0020_1">
	<path class="st0" d="M-583,309c-10.7-10.7-25.5-17.4-41.9-17.4c-16.4,0-31.2,6.6-41.9,17.4c-10.7,10.7-17.4,25.5-17.4,41.9
		c0,16.4,6.6,31.2,17.4,41.9c10.7,10.7,25.5,17.4,41.9,17.4c16.4,0,31.2-6.6,41.9-17.4c10.7-10.7,17.4-25.5,17.4-41.9
		C-565.6,334.5-572.3,319.7-583,309z M-624.9,288.8c17.1,0,32.7,7,43.9,18.2c11.2,11.2,18.2,26.8,18.2,43.9c0,17.1-7,32.7-18.2,43.9
		c-11.2,11.2-26.8,18.2-43.9,18.2c-17.1,0-32.7-7-43.9-18.2c-11.2-11.2-18.2-26.8-18.2-43.9c0-17.1,7-32.7,18.2-43.9
		C-657.6,295.8-642.1,288.8-624.9,288.8z M-617.3,318.7v83.1l10.4-8.4v-62.2c1.4,2.4,2.7,4.9,3.8,7.5c3.3-1.2,6.6-2.4,9.9-3.7
		c-5.6-13.2-13.8-24.8-29.8-31.6c0,3.8,0,7.7,0,11.6C-620.9,316.1-619.1,317.3-617.3,318.7L-617.3,318.7z M-632.3,315.1v83.1
		l-10.4-8.4v-62.2c-1.4,2.4-2.7,4.9-3.8,7.5c-3.3-1.2-6.6-2.4-9.9-3.7c5.6-13.2,13.8-24.8,29.8-31.6c0,3.8,0,7.7,0,11.6
		C-628.6,312.5-630.5,313.7-632.3,315.1L-632.3,315.1z"/>
</g>
</svg>
