<?xml version="1.0" encoding="UTF-8"?>
<!DOCTYPE svg PUBLIC "-//W3C//DTD SVG 1.1//EN" "http://www.w3.org/Graphics/SVG/1.1/DTD/svg11.dtd">
<!-- Creator: CorelDRAW 2017 -->
<svg xmlns="http://www.w3.org/2000/svg" xml:space="preserve" width="138.27mm" height="43.8326mm" version="1.1" style="shape-rendering:geometricPrecision; text-rendering:geometricPrecision; image-rendering:optimizeQuality; fill-rule:evenodd; clip-rule:evenodd"
viewBox="0 0 2953.66 936.33"
 xmlns:xlink="http://www.w3.org/1999/xlink">
 <defs>
  <style type="text/css">
   <![CDATA[
    .fil0 {fill:#7EDDD3;fill-rule:nonzero}
   ]]>
  </style>
 </defs>
 <g id="Layer_x0020_1">
  <metadata id="CorelCorpID_0Corel-Layer"/>
  <path class="fil0" d="M1315.82 919.7l0 -273.42 25.68 0 87.19 157.11 87.19 -157.11 25.91 0 0 273.42 -34.52 0 0 -188.55 -67.97 121.84 -21.22 0 -67.81 -121.84 0 188.55 -34.44 0zm338.15 0l90.8 -273.42 25.83 0 90.8 273.42 -35.83 0 -14.84 -43.67 -106.56 0 -14.38 43.67 -35.83 0zm103.79 -204.24l-43.9 131.21 87.19 0 -43.29 -131.21zm347.3 183.54c-17.68,15.1 -39.13,22.59 -64.35,22.59 -25.22,0 -46.75,-7.68 -64.66,-23.17 -17.83,-15.42 -26.75,-34.17 -26.75,-56.17l34.67 0c0,13.86 5.54,25.71 16.53,35.47 11.07,9.83 24.45,14.71 40.21,14.71 15.3,0 28.52,-4.69 39.67,-14.12 11.07,-9.37 16.68,-20.83 16.68,-34.3 0,-7.49 -3.07,-15.29 -9.31,-23.43 -6.15,-8.13 -14.3,-14.84 -24.52,-20.05l-62.59 -32.8c-11.76,-6.25 -20.99,-14.45 -27.76,-24.6 -6.77,-10.15 -10.15,-20.95 -10.15,-32.41 0,-18.42 7.69,-34.1 22.91,-46.99 15.22,-12.89 33.75,-19.33 55.51,-19.33 21.45,0 39.91,6.5 55.28,19.52 15.38,13.02 23.15,28.64 23.15,46.79l-34.52 0c0,-9.89 -4.31,-18.55 -12.92,-25.9 -8.61,-7.42 -18.99,-11.06 -30.98,-11.06 -11.99,0 -22.37,3.58 -30.98,10.87 -8.61,7.23 -12.92,15.95 -12.92,26.1 0,14.12 7.15,24.8 21.37,32.02l62.67 32.8c14.37,7.49 26.37,17.38 35.9,29.68 9.53,12.24 14.3,25.19 14.3,38.79 0,21.61 -8.84,39.96 -26.45,55zm109.57 -223.37l0 -29.35 172.99 0 0 29.35 -69.19 0 0 244.07 -34.68 0 0 -244.07 -69.12 0zm285.18 244.07l0 -273.42 138.32 0 0 29.35 -103.87 0 0 113.25 87.65 0 0 29.35 -87.65 0 0 72.11 103.87 0 0 29.35 -138.32 0zm416.49 0l-52.74 -102.77c-5.53,0.78 -11.07,1.17 -16.61,1.3l-50.74 0 0 101.47 -34.45 0 0 -273.42 85.19 0c28.52,0 52.97,8.4 73.28,25.25 20.37,16.86 30.52,37.1 30.52,60.72 0,15.88 -4.92,30.59 -14.75,44.13 -9.85,13.54 -22.84,23.95 -39.06,31.17l56.74 112.14 -37.37 0zm-20.37 -147.42c13.6,-11.06 20.37,-24.41 20.37,-40.03 0,-15.62 -6.77,-28.96 -20.37,-40.03 -13.61,-11.07 -29.91,-16.6 -48.98,-16.6l-50.74 0 0 113.25 50.74 0c19.07,0 35.37,-5.53 48.98,-16.6zm-1580.1 -711.62l0 -56.99 284.35 0 0 56.99 -113.74 0 0 473.92 -56.99 0 0 -473.92 -113.61 0zm303.18 208.4c0,-74.31 26.29,-137.62 78.86,-190.2 52.57,-52.57 116.01,-78.86 190.33,-78.86 73.8,0 137.12,26.29 189.94,78.86 52.83,52.57 79.24,115.89 79.24,190.2 0,73.81 -26.41,137.12 -79.24,189.95 -52.83,52.83 -116.14,79.24 -189.94,79.24 -74.31,0 -137.75,-26.41 -190.33,-79.24 -52.57,-52.83 -78.86,-116.14 -78.86,-189.95zm119.43 -149.88c-41.58,41.45 -62.43,91.5 -62.43,150.14 0,58.64 20.85,108.69 62.43,150.14 41.58,41.45 91.5,62.18 149.63,62.18 58.14,0 108.05,-20.73 149.76,-62.18 41.7,-41.45 62.56,-91.5 62.56,-150.14 0,-58.64 -20.85,-108.68 -62.56,-150.14 -41.7,-41.45 -91.62,-62.18 -149.76,-62.18 -58.13,0 -108.05,20.73 -149.63,62.18zm645.91 419.07c-40.06,0 -74.06,-14.16 -101.99,-42.34 -28.05,-28.31 -42.08,-62.18 -42.08,-101.61l0 -390.63 57 0 0 390.63c0,23.63 8.59,44.11 25.78,61.42 17.06,17.31 37.66,25.91 61.42,25.91 23.88,0 44.36,-8.6 61.42,-25.91 17.19,-17.31 25.78,-37.79 25.78,-61.42l0 -390.63 56.99 0 0 390.63c0,39.43 -14.15,73.3 -42.59,101.61 -28.31,28.18 -62.3,42.34 -101.73,42.34zm507.91 -3.67l-86.69 -199.55c-9.1,1.52 -18.2,2.27 -27.3,2.52l-83.41 0 0 197.02 -56.62 0 0 -530.91 140.03 0c46.88,0 87.07,16.3 120.44,49.03 33.49,32.73 50.17,72.04 50.17,117.91 0,30.84 -8.09,59.4 -24.26,85.68 -16.18,26.29 -37.53,46.51 -64.2,60.54l93.26 217.75 -61.42 0zm-33.49 -286.25c22.37,-21.48 33.49,-47.39 33.49,-77.72 0,-30.33 -11.12,-56.23 -33.49,-77.72 -22.37,-21.49 -49.16,-32.23 -80.5,-32.23l-83.41 0 0 219.9 83.41 0c31.34,0 58.13,-10.74 80.5,-32.23zm-1740.84 -247.95l15.83 0 0 935.96 -15.83 0 0 -935.96zm-705.37 198.38l0 626.23 -78.56 -63.35 0 -468.4c-10.45,17.75 -20,36.63 -28.83,56.44 -24.87,-9.23 -49.74,-18.46 -74.61,-27.69 42.14,-99.6 103.81,-187.18 224.38,-238.51 0,29.01 0,58.03 0,87.04 -15.16,8.1 -29.25,17.57 -42.38,28.26zm112.46 27.13l0 626.23 78.56 -63.35 0 -468.4c10.45,17.75 20,36.63 28.83,56.44 24.87,-9.23 49.74,-18.46 74.61,-27.69 -42.14,-99.6 -103.81,-187.18 -224.38,-238.51 0,29.01 0,58.03 0,87.04 15.16,8.1 29.25,17.57 42.38,28.26zm-57.07 -225.45c129.21,0 246.19,52.37 330.87,137.05 84.68,84.68 137.05,201.66 137.05,330.87 0,129.21 -52.38,246.2 -137.05,330.87 -84.68,84.68 -201.66,137.05 -330.87,137.05 -129.21,0 -246.2,-52.38 -330.87,-137.05 -84.68,-84.68 -137.05,-201.67 -137.05,-330.87 0,-129.21 52.38,-246.2 137.05,-330.87 84.68,-84.68 201.66,-137.05 330.87,-137.05zm315.77 152.16c-80.81,-80.81 -192.46,-130.79 -315.77,-130.79 -123.32,0 -234.96,49.98 -315.77,130.79 -80.81,80.81 -130.79,192.45 -130.79,315.77 0,123.32 49.98,234.96 130.79,315.77 80.81,80.81 192.45,130.79 315.77,130.79 123.32,0 234.96,-49.99 315.77,-130.79 80.81,-80.81 130.79,-192.46 130.79,-315.77 0,-123.32 -49.99,-234.96 -130.79,-315.77z"/>
 </g>
</svg>
